<svg xmlns="http://www.w3.org/2000/svg" width="54.785" height="54.785" viewBox="0 0 54.785 54.785"><path d="M32.2,8A26.276,26.276,0,0,0,42.767,5.854,28,28,0,0,0,51.509-.081a28,28,0,0,0,5.935-8.741A26.276,26.276,0,0,0,59.592-19.39a26.276,26.276,0,0,0-2.148-10.568A28,28,0,0,0,51.509-38.7a27.957,27.957,0,0,0-8.755-5.935,26.371,26.371,0,0,0-10.581-2.148,26.276,26.276,0,0,0-10.568,2.148A27.84,27.84,0,0,0,12.877-38.7a28.115,28.115,0,0,0-5.922,8.741A26.276,26.276,0,0,0,4.807-19.39,26.276,26.276,0,0,0,6.956-8.822,28,28,0,0,0,12.891-.081a28,28,0,0,0,8.741,5.935A26.276,26.276,0,0,0,32.2,8Zm0-4.565a22.325,22.325,0,0,1-8.889-1.772,22.964,22.964,0,0,1-7.264-4.9A22.779,22.779,0,0,1,11.158-10.5,22.473,22.473,0,0,1,9.4-19.39a22.473,22.473,0,0,1,1.759-8.889,23.048,23.048,0,0,1,4.874-7.278,22.516,22.516,0,0,1,7.251-4.9,22.473,22.473,0,0,1,8.889-1.759,22.57,22.57,0,0,1,8.9,1.759,22.631,22.631,0,0,1,7.278,4.9,23.124,23.124,0,0,1,4.9,7.278,22.325,22.325,0,0,1,1.772,8.889A22.473,22.473,0,0,1,53.268-10.5a22.67,22.67,0,0,1-4.9,7.264,23.124,23.124,0,0,1-7.278,4.9A22.325,22.325,0,0,1,32.2,3.438Zm.027-9.426a1.929,1.929,0,0,0,1.423-.564A1.963,1.963,0,0,0,34.214-8V-21.431l-.188-5.693,2.712,3.25,3.169,3.223a1.831,1.831,0,0,0,1.423.591,1.921,1.921,0,0,0,1.4-.551,1.852,1.852,0,0,0,.564-1.383,1.947,1.947,0,0,0-.537-1.4l-8.97-8.916a2.18,2.18,0,0,0-1.558-.779,2.18,2.18,0,0,0-1.558.779L21.7-23.391a1.889,1.889,0,0,0-.537,1.4,1.876,1.876,0,0,0,.551,1.383,1.876,1.876,0,0,0,1.383.551,1.94,1.94,0,0,0,1.423-.591l3.2-3.223L30.4-27.1l-.188,5.667V-8a1.963,1.963,0,0,0,.564,1.45A1.963,1.963,0,0,0,32.227-5.989Z" transform="translate(-4.807 46.782)" fill="#af0d21"/></svg>