<svg xmlns="http://www.w3.org/2000/svg" width="44.262" height="44.262" viewBox="0 0 44.262 44.262">
  <path id="arrow_carrot_2up_alt2" data-name="arrow carrot 2up alt2" d="M23.149,10.649a1.416,1.416,0,0,0-1.019-.463,1.515,1.515,0,0,0-1.111.463l-9.908,8.7a1.417,1.417,0,0,0,0,2.176,1.315,1.315,0,0,0,2.13-.046l8.889-7.871,8.8,7.871a1.361,1.361,0,0,0,2.176.046,1.361,1.361,0,0,0-.046-2.176Zm0,10.556a1.594,1.594,0,0,0-1.019-.37,1.724,1.724,0,0,0-1.111.37L11.112,30a1.368,1.368,0,0,0,0,2.13,1.368,1.368,0,0,0,2.13,0l8.889-7.871,8.8,7.871a1.417,1.417,0,0,0,2.176,0A1.315,1.315,0,0,0,33.057,30ZM37.78,6.482A21.323,21.323,0,0,0,22.131,0,21.323,21.323,0,0,0,6.482,6.482,21.323,21.323,0,0,0,0,22.131,21.323,21.323,0,0,0,6.482,37.78a21.323,21.323,0,0,0,15.649,6.482A21.323,21.323,0,0,0,37.78,37.78a21.323,21.323,0,0,0,6.482-15.649A21.323,21.323,0,0,0,37.78,6.482ZM35.65,35.743A18.347,18.347,0,0,1,22.177,41.3,18.576,18.576,0,0,1,8.612,35.7,18.347,18.347,0,0,1,2.963,22.177,18.5,18.5,0,0,1,8.612,8.612,18.5,18.5,0,0,1,22.177,2.963,18.347,18.347,0,0,1,35.7,8.612a18.576,18.576,0,0,1,5.6,13.566A18.5,18.5,0,0,1,35.65,35.743ZM44.262,41.3" fill="#707071"/>
</svg>
