<svg xmlns="http://www.w3.org/2000/svg" width="21.869" height="21.869" viewBox="0 0 21.869 21.869">
  <path id="mail_open" data-name="mail open" d="M10.935,0,0,6.151V19.135a2.634,2.634,0,0,0,.8,1.933,2.634,2.634,0,0,0,1.933.8h16.4a2.734,2.734,0,0,0,2.734-2.734V6.151ZM1.367,19.135V8.457L7.56,13.391,1.431,19.52q-.021-.085-.043-.182A.933.933,0,0,1,1.367,19.135ZM2.435,20.46l6.279-6.279,2.221,1.538,2.221-1.538,6.279,6.279q-.021.021-2.68.021H5.126Q2.477,20.481,2.435,20.46ZM20.5,19.135a.933.933,0,0,1-.021.2q-.021.1-.043.182l-6.129-6.129L20.5,8.457Zm-9.568-5.019L1.367,6.834,10.913,1.6,20.5,6.834ZM21.869,20.5" fill="#503d42"/>
</svg>
