<svg xmlns="http://www.w3.org/2000/svg" width="21.869" height="21.869" viewBox="0 0 21.869 21.869">
  <path id="bubble_text" data-name="bubble text" d="M15.718,7.518H6.151a.683.683,0,0,0,0,1.367h9.568a.683.683,0,0,0,0-1.367Zm-1.367,4.1H7.518a.683.683,0,0,0,0,1.367h6.834a.683.683,0,0,0,0-1.367ZM10.935,0A12.053,12.053,0,0,0,6.674.747,11.138,11.138,0,0,0,3.193,2.8,9.707,9.707,0,0,0,.854,5.841a8.519,8.519,0,0,0-.566,5.916,9.038,9.038,0,0,0,.822,2.018A9.251,9.251,0,0,0,2.4,15.558a9.842,9.842,0,0,0,1.7,1.463v4.848l4.784-2.9q.513.085,1.014.128t1.036.043a12.053,12.053,0,0,0,4.261-.747,11.137,11.137,0,0,0,3.481-2.05,9.707,9.707,0,0,0,2.339-3.043,8.346,8.346,0,0,0,.854-3.727,8.346,8.346,0,0,0-.854-3.727A9.707,9.707,0,0,0,18.676,2.8,11.137,11.137,0,0,0,15.2.747,12.053,12.053,0,0,0,10.935,0Zm0,17.769A10.63,10.63,0,0,1,9.76,17.7a9.884,9.884,0,0,1-1.132-.192L5.4,19.456l.043-3.182a9.583,9.583,0,0,1-1.676-1.281,8.211,8.211,0,0,1-1.292-1.58,7.4,7.4,0,0,1-.822-1.826,7.2,7.2,0,0,1,.459-5.211,8.4,8.4,0,0,1,2.05-2.606A9.809,9.809,0,0,1,7.208,2.008a10.7,10.7,0,0,1,3.727-.641,10.7,10.7,0,0,1,3.727.641A9.809,9.809,0,0,1,17.7,3.769a8.4,8.4,0,0,1,2.05,2.606,7.193,7.193,0,0,1,0,6.386,8.4,8.4,0,0,1-2.05,2.606,9.809,9.809,0,0,1-3.043,1.762A10.7,10.7,0,0,1,10.935,17.769ZM21.869,20.5" fill="#503d42"/>
</svg>
