<svg xmlns="http://www.w3.org/2000/svg" width="54.471" height="57.292" viewBox="0 0 54.471 57.292">
  <path id="lightbulb_o" data-name="lightbulb o" d="M11.485,54.4a2.867,2.867,0,0,0,2.888,2.888H25.791A2.867,2.867,0,0,0,28.68,54.4V51.583H11.485ZM20.082,0a19.549,19.549,0,0,0-7.825,1.578A20.1,20.1,0,0,0,1.578,12.258,19.384,19.384,0,0,0,0,20.015a19.469,19.469,0,0,0,2.351,9.437A19.914,19.914,0,0,0,8.6,36.471v9.336a2.867,2.867,0,0,0,2.888,2.888H28.68a2.867,2.867,0,0,0,2.888-2.888V36.471a19.914,19.914,0,0,0,6.246-7.019,19.469,19.469,0,0,0,2.351-9.437,19.384,19.384,0,0,0-1.578-7.758A20.1,20.1,0,0,0,27.907,1.578,19.549,19.549,0,0,0,20.082,0Zm8.194,31.769-2.485,1.746v9.47H14.373v-9.47l-2.485-1.746a14.012,14.012,0,0,1-4.5-5.138,14.469,14.469,0,0,1-.5-12.191A13.843,13.843,0,0,1,9.94,9.907a14.994,14.994,0,0,1,4.567-3.056,14.18,14.18,0,0,1,11.149,0,14.994,14.994,0,0,1,4.567,3.056,13.843,13.843,0,0,1,3.056,4.534,14.469,14.469,0,0,1-.5,12.191A14.012,14.012,0,0,1,28.277,31.769ZM54.471,57.292" fill="#8dc21c"/>
</svg>
