<svg xmlns="http://www.w3.org/2000/svg" width="432" height="255" viewBox="0 0 432 255">
  <g id="Gruppe_6520" data-name="Gruppe 6520" transform="translate(-296 -2013)">
    <g id="Gruppe_3463" data-name="Gruppe 3463" transform="translate(392 2102.057)">
      <g id="Pabst-Holz-Logo-21-4c" transform="translate(120 42.518)">
        <g id="Gruppe_3449" data-name="Gruppe 3449" transform="translate(-120 -42.518)">
          <g id="Gruppe_3448" data-name="Gruppe 3448" transform="translate(0.02 55.155)">
            <path id="Pfad_22704" data-name="Pfad 22704" d="M300.962,339.752V310.679H305v12.53h15.469v-12.53H324.5v29.073h-4.036V326.574H305v13.179Z" transform="translate(-300.962 -310.274)" fill="#207129"/>
            <path id="Pfad_22705" data-name="Pfad 22705" d="M345.16,310.274c9.061,0,14.982,5.879,14.982,14.943s-5.921,14.94-14.982,14.94-14.983-5.879-14.983-14.94S336.1,310.274,345.16,310.274Zm-10.665,14.943c0,6.608,3.731,11.575,10.665,11.575s10.664-4.967,10.664-11.575-3.73-11.577-10.664-11.577S334.495,318.607,334.495,325.217Z" transform="translate(-300.963 -310.274)" fill="#207129"/>
            <path id="Pfad_22706" data-name="Pfad 22706" d="M369.851,336.387H384.49v3.366H365.817V310.679h4.034Z" transform="translate(-300.964 -310.274)" fill="#207129"/>
            <path id="Pfad_22707" data-name="Pfad 22707" d="M389.762,339.752v-1.967l17.028-23.74H390.268v-3.366h22.28v1.967l-17.009,23.74h17.009v3.366Z" transform="translate(-300.964 -310.274)" fill="#207129"/>
          </g>
          <path id="Pfad_22708" data-name="Pfad 22708" d="M348.488,271.636c0-10.926-7.873-15.377-17.915-15.377H300.942v40.908h12.067l.029-10.156h17.536C340.615,287.011,348.488,282.561,348.488,271.636Zm-17.915,5.306H313.009V266.329h17.565c3.509,0,5.734,1.655,5.734,5.307S334.082,276.941,330.573,276.941Zm104.28-1.17c3.738-1.112,6.362-3.937,6.362-7.959,0-9.186-7.731-11.554-15.661-11.554h-28.27v40.908h28.7c7.9,0,16.631-2.6,16.631-11.953C442.613,280.136,439.79,276.855,434.854,275.772Zm-25.5-10.042h16.2c2.14,0,4.08.856,4.08,3.253s-1.94,3.252-4.08,3.252h-16.2Zm16.632,22H409.35v-6.9h16.632c2.368,0,4.936.6,4.936,3.451S428.35,287.725,425.982,287.725Zm65.156-2.825c0,11.9-14.264,13.408-23.249,13.408-6.39,0-15.8-.913-21.281-4.65l5.648-8.244a41.2,41.2,0,0,0,15.063,2.853c3.623,0,11.64,0,11.64-3.367,0-2.539-6.761-2.938-11.526-3.452-8.387-.913-19.541-2.795-19.541-13.379,0-10.727,11.81-12.952,20.283-12.952,7.332,0,14.492.942,21.053,4.422l-5.649,8.245a38.222,38.222,0,0,0-14.834-2.625c-2.939,0-8.673-.143-8.673,2.91,0,2.795,4.821,3.052,9.7,3.594C478.216,272.606,491.138,273.889,491.138,284.9Zm49.8-28.641V266.3H523.568v30.866H511.5V266.3H494.129V256.259Zm-164.248,0H374.22l-36.577,40.912h14.542l5.7-6.576h18.8v6.576h12.067V256.259H376.694Zm-10.858,25.177,10.858-12.514v12.514Z" transform="translate(-300.942 -255.118)" fill="#207129"/>
        </g>
      </g>
    </g>
    <rect id="Rechteck_857" data-name="Rechteck 857" width="432" height="255" transform="translate(296 2013)" fill="none"/>
  </g>
</svg>
