<svg xmlns="http://www.w3.org/2000/svg" width="195.582" height="76.091" viewBox="0 0 195.582 76.091">
  <g id="Logo_Simpel_voll_quer_4c_positiv" data-name="Logo Simpel voll quer 4c positiv" transform="translate(97.791 38.046)">
    <g id="Gruppe_6501" data-name="Gruppe 6501" transform="translate(-97.791 -38.046)">
      <g id="Gruppe_6497" data-name="Gruppe 6497" transform="translate(0)">
        <path id="Pfad_23532" data-name="Pfad 23532" d="M.9,48.849H25.948a14.266,14.266,0,0,1,.743-6.8s-4.346.572-4.117-2.459c0,0-2.917,5.833-6.519,2.917a2.475,2.475,0,0,1-1.086-3.66s-2.888,2.259-4.861.286c0,0-3.431-2.516,2.345-4.174L12.4,33.867s-3.717-.457-1.43-4.632c0,0,3.145-2.859,4.8-2.859V25.8s-1.83-1.144,0-1.715c0,0-4.575-3.545,2.459-4.918,0,0-1.513-5.318,2.459-5.318.286,0,5.547-3.545,6.976-4.174,0,0,4.918-2,3.774,2.573,0,0,3.374-3.374,6.119-1.944,0,0,1.658.457.4,2.917,0,0,.629-.572,3.317,0,0,0-5.776-3.774,1.43-5.318,0,0,7.948-7.481,13.324-7.777,0,0,1.944-.514,2.23.515,0,0,3.831-.858,2.574,3.431,0,0,4.4-3.66,7.319-.743,0,0,1.086,1.086-.343,3.66a1.393,1.393,0,0,1,2.287.629s5.261-4.232,4.689,1.487A8.081,8.081,0,0,1,72.1,13.4s2.716-1.286,4,0c0,0,9.149-4.289,12.237-4.289,0,0,5.49-1.258,2.745,2.116a9.712,9.712,0,0,0-3.2,3.2c-.858,1.773,0,.286,0,.286s7.892-3.145,6.4,2.459c0,0,6.69-1.544,3.2,3.889,0,0,6.633-.458,1.945,5.089a4.983,4.983,0,0,1-2.688,4.861s2.173,5.2-5.147,5.947c0,0-1.257,7.262-10.407,4.06a11.7,11.7,0,0,1-2.116,7.834s12.924.343,16.755.343c0,0,8.177-.171,13.152,1.029,0,0-9.173.489-16.183.915-.4.024-11.551,0-15.154,0,0,0-4.377.88-7.438,1.312,0,0-4.252.1-15.742.5,0,0-2.082-.167-37.32-1.411,0,0-13.867,1.057-16.926-2C.216,49.535-.585,48.849.9,48.849Zm52.036.2h23.7s-3.072-5.487-.282-7.211c0,0-1.756-.69-1.254-2.289h-1.16S70.933,42.9,66.7,42.089c0,0-3.386-1.1-.345-3.825L64.1,37.983s.784,4.577-4.891,4.138c0,0-2.978,2.6-5.235,1.944C53.972,44.065,55.383,47.262,52.938,49.049Zm-22.541,0H45.79s.188-3.48,1.379-4.984c0,0-4.624,2.586-7.022.188a1.677,1.677,0,0,1,.439-2.195s.47-1.536-.768-.768a6.424,6.424,0,0,1-4.5,1.74s-2.665.188-2.916-2.195a11.56,11.56,0,0,1-2.852.784S31.9,43.75,30.4,49.049Z" transform="translate(0 0)" fill="#8dc21c"/>
      </g>
      <g id="Gruppe_6498" data-name="Gruppe 6498" transform="translate(113.607 7.946)">
        <path id="Pfad_23533" data-name="Pfad 23533" d="M291.135,40.466V31.354H279.081a.831.831,0,0,1-.807-.837V20.511a.822.822,0,1,1,1.644,0v9.17h12.054a.831.831,0,0,1,.807.836v9.948a.822.822,0,1,1-1.643,0Zm-12.861,0V33.834a.822.822,0,0,1,1.644,0v6.632a.822.822,0,1,1-1.644,0Zm12.861-13.322V20.511a.822.822,0,1,1,1.643,0v6.633a.822.822,0,0,1-1.643,0Z" transform="translate(-278.274 -19.588)" fill="#8dc21c"/>
        <path id="Pfad_23534" data-name="Pfad 23534" d="M321.288,38.726c-1.47-1.759-2.192-4.5-2.192-8.363a21.887,21.887,0,0,1,.49-4.931A8.034,8.034,0,0,1,321.115,22a6.405,6.405,0,0,1,2.711-1.961,9.814,9.814,0,0,1,3.633-.576,8.39,8.39,0,0,1,3.662.692,6.416,6.416,0,0,1,2.711,2.076c1.3,1.788,1.932,4.441,1.932,8.132a20.912,20.912,0,0,1-.49,4.729,9.059,9.059,0,0,1-1.643,3.432,7.309,7.309,0,0,1-6.172,2.739C324.663,41.263,322.644,40.427,321.288,38.726Zm1.1-15.687c-1.1,1.442-1.644,3.835-1.644,7.324,0,3.46.606,5.825,1.759,7.325,1.038,1.3,2.682,1.9,4.959,1.9a5.75,5.75,0,0,0,4.932-2.134c1.124-1.529,1.73-3.922,1.73-7.094,0-3.287-.519-5.594-1.586-7.094-1.067-1.442-2.711-2.134-5.075-2.134C325.009,21.136,323.393,21.741,322.385,23.039Z" transform="translate(-302.431 -19.463)" fill="#8dc21c"/>
        <path id="Pfad_23535" data-name="Pfad 23535" d="M364.854,29.595a.831.831,0,0,1-.837-.808v-8.3a.831.831,0,0,1,.837-.808h12.053a.808.808,0,1,1,0,1.615H365.69v6.633h7.324a.887.887,0,0,1,.865.865.838.838,0,0,1-.865.808Zm-.837,10.871V31.988a.851.851,0,0,1,.837-.807.831.831,0,0,1,.836.807v8.478a.856.856,0,0,1-.836.837A.877.877,0,0,1,364.017,40.466Z" transform="translate(-329.012 -19.588)" fill="#8dc21c"/>
        <path id="Pfad_23536" data-name="Pfad 23536" d="M400.108,25.587v-5.1a.788.788,0,0,1,.807-.808h12.054a.788.788,0,0,1,.807.808.812.812,0,0,1-.807.836H401.752v4.268a.837.837,0,0,1-.837.836A.813.813,0,0,1,400.108,25.587Zm.807,15.687a.788.788,0,0,1-.807-.808V29.047a.812.812,0,0,1,.807-.837h9.141a.822.822,0,1,1,0,1.644h-8.3V39.63h11.218a.812.812,0,0,1,.807.836.788.788,0,0,1-.807.808Z" transform="translate(-350.368 -19.588)" fill="#8dc21c"/>
        <path id="Pfad_23537" data-name="Pfad 23537" d="M455.023,41.071a.741.741,0,0,1-.576.231.709.709,0,0,1-.577-.288l-5.94-6.373H440.98v5.854a.851.851,0,0,1-.837.808.832.832,0,0,1-.836-.808V20.511a.837.837,0,0,1,.836-.836h7.036a8.4,8.4,0,0,1,5.479,2.192,7.043,7.043,0,0,1,1.99,5.277,9.209,9.209,0,0,1-.692,3.72,6.653,6.653,0,0,1-1.7,2.278.829.829,0,1,1-1.067-1.268,5.813,5.813,0,0,0,1.787-4.729A5.637,5.637,0,0,0,451.5,23.02a6.205,6.205,0,0,0-2.768-1.471,7.841,7.841,0,0,0-1.557-.2h-6.2V32.969h7.353a.888.888,0,0,1,.577.259l6.171,6.69A.819.819,0,0,1,455.023,41.071Z" transform="translate(-373.564 -19.588)" fill="#8dc21c"/>
      </g>
      <g id="Gruppe_6499" data-name="Gruppe 6499" transform="translate(113.812 35.899)">
        <path id="Pfad_23538" data-name="Pfad 23538" d="M287.567,102.288V96.06h-8.239a.568.568,0,0,1-.552-.572V88.649a.562.562,0,1,1,1.124,0v6.268h8.239a.568.568,0,0,1,.552.572v6.8a.562.562,0,1,1-1.124,0Zm-8.791,0V97.755a.562.562,0,0,1,1.124,0v4.533a.562.562,0,1,1-1.124,0Zm8.791-9.106V88.649a.562.562,0,1,1,1.124,0v4.533a.562.562,0,0,1-1.124,0Z" transform="translate(-278.776 -88.018)" fill="#8dc21c" stroke="#8dc21c" stroke-miterlimit="10" stroke-width="0.448"/>
        <path id="Pfad_23539" data-name="Pfad 23539" d="M308.179,101.1c-1.005-1.2-1.5-3.075-1.5-5.716a14.961,14.961,0,0,1,.335-3.371,5.485,5.485,0,0,1,1.045-2.345,4.369,4.369,0,0,1,1.853-1.34,6.7,6.7,0,0,1,2.483-.394,5.744,5.744,0,0,1,2.5.473,4.388,4.388,0,0,1,1.853,1.42c.887,1.222,1.32,3.035,1.32,5.558a14.323,14.323,0,0,1-.335,3.233,6.191,6.191,0,0,1-1.124,2.345,5.837,5.837,0,0,1-8.436.138Zm.749-10.722c-.749.986-1.124,2.621-1.124,5.006,0,2.365.414,3.981,1.2,5.006a4.063,4.063,0,0,0,3.39,1.3,3.931,3.931,0,0,0,3.371-1.458,8.242,8.242,0,0,0,1.182-4.849,8.4,8.4,0,0,0-1.084-4.849,3.979,3.979,0,0,0-3.469-1.458A4.055,4.055,0,0,0,308.928,90.377Z" transform="translate(-295.289 -87.933)" fill="#8dc21c" stroke="#8dc21c" stroke-miterlimit="10" stroke-width="0.448"/>
        <path id="Pfad_23540" data-name="Pfad 23540" d="M337.386,100.593V88.649a.572.572,0,0,1,.572-.572.556.556,0,0,1,.552.572v11.944a.539.539,0,0,1-.552.552A.555.555,0,0,1,337.386,100.593Zm.572,2.266a.572.572,0,0,1-.572-.572.556.556,0,0,1,.572-.552h7.49a.568.568,0,0,1,.572.552.586.586,0,0,1-.572.572Z" transform="translate(-313.458 -88.018)" fill="#8dc21c" stroke="#8dc21c" stroke-miterlimit="10" stroke-width="0.448"/>
        <path id="Pfad_23541" data-name="Pfad 23541" d="M362.406,89.149a.553.553,0,1,1,0-1.1h6.287a.552.552,0,1,1,0,1.1Zm0,13.679a.566.566,0,0,1-.513-.3.506.506,0,0,1,.04-.572l9.362-13.679a.535.535,0,0,1,.769-.158.554.554,0,0,1,.158.788L363.469,101.7h8.3a.569.569,0,0,1,.552.572.551.551,0,0,1-.552.552Z" transform="translate(-327.913 -87.987)" fill="#8dc21c" stroke="#8dc21c" stroke-miterlimit="10" stroke-width="0.448"/>
        <path id="Pfad_23542" data-name="Pfad 23542" d="M403.372,99.016a3.485,3.485,0,0,1-.67,2.188,3.588,3.588,0,0,1-1.5,1.182,5.986,5.986,0,0,1-2.247.473h-5.5a.568.568,0,0,1-.552-.572V88.649a.568.568,0,0,1,.552-.572h5.519a5.169,5.169,0,0,1,1.911.454,3.511,3.511,0,0,1,1.4,1.143,3.822,3.822,0,0,1,.611,2.207,3.476,3.476,0,0,1-1.656,3.153.985.985,0,0,0,.138.06A4.214,4.214,0,0,1,403.372,99.016Zm-1.124,0a3.131,3.131,0,0,0-1.439-2.937,3.82,3.82,0,0,0-1.754-.453h-.04a.572.572,0,0,1-.02-1.143h.059a3.276,3.276,0,0,0,1.518-.394,2.254,2.254,0,0,0,1.2-2.207,2.387,2.387,0,0,0-1.34-2.325,3.765,3.765,0,0,0-1.458-.336H394.03v5.263h2.681a.572.572,0,0,1,.571.572.585.585,0,0,1-.571.572H394.03v6.091h4.928a4.771,4.771,0,0,0,1.793-.375A2.338,2.338,0,0,0,402.249,99.016Z" transform="translate(-346.312 -88.018)" fill="#8dc21c" stroke="#8dc21c" stroke-miterlimit="10" stroke-width="0.448"/>
        <path id="Pfad_23543" data-name="Pfad 23543" d="M432.859,102.82a.565.565,0,0,1-.729-.3l-5.065-12.4-5.105,12.4a.641.641,0,0,1-.532.335.426.426,0,0,1-.217-.039.573.573,0,0,1-.316-.749l5.657-13.659a.565.565,0,0,1,.513-.335.544.544,0,0,1,.512.335l5.6,13.659A.573.573,0,0,1,432.859,102.82Zm-3.232-4.514a.572.572,0,0,0-.572-.572h-4.021a.572.572,0,0,0,0,1.143h4.021A.572.572,0,0,0,429.626,98.307Z" transform="translate(-362.849 -88.018)" fill="#8dc21c" stroke="#8dc21c" stroke-miterlimit="10" stroke-width="0.448"/>
        <path id="Pfad_23544" data-name="Pfad 23544" d="M455.216,101.657a6.118,6.118,0,0,1-1.478-3.863V88.649a.549.549,0,0,1,.572-.572.54.54,0,0,1,.532.572v9.145a5.808,5.808,0,0,0,.513,2.069,3.262,3.262,0,0,0,3.233,1.912,3.327,3.327,0,0,0,3.252-1.951,5.874,5.874,0,0,0,.473-2.05V88.649a.544.544,0,0,1,.552-.572.56.56,0,0,1,.572.572v9.125a6.5,6.5,0,0,1-.592,2.543,4.313,4.313,0,0,1-1.439,1.774,4.805,4.805,0,0,1-2.818.828A4.628,4.628,0,0,1,455.216,101.657Z" transform="translate(-382.309 -88.018)" fill="#8dc21c" stroke="#8dc21c" stroke-miterlimit="10" stroke-width="0.448"/>
      </g>
      <rect id="Rechteck_848" data-name="Rechteck 848" width="195.582" height="15.086" rx="1.963" transform="translate(0 61.005)" fill="#8dc21c"/>
      <g id="Gruppe_6500" data-name="Gruppe 6500" transform="translate(4.959 65.549)">
        <path id="Pfad_23545" data-name="Pfad 23545" d="M13.611,167.087,12.146,160.8h1.045l1.064,4.717,1.192-3.955V160.8h.869l1.338,4.717,1.084-4.717h1.035l-1.455,6.289H17.272l-1.259-4.4-1.338,4.4Z" transform="translate(-12.146 -160.7)" fill="#fff"/>
        <path id="Pfad_23546" data-name="Pfad 23546" d="M38.169,167.087V160.8h1.065v6.289Z" transform="translate(-27.545 -160.7)" fill="#fff"/>
        <path id="Pfad_23547" data-name="Pfad 23547" d="M48.575,167.087V160.8h2.89A1.963,1.963,0,0,1,53,161.34a2.128,2.128,0,0,1,.483,1.47,1.911,1.911,0,0,1-.332,1.132,1.732,1.732,0,0,1-.957.654,1.084,1.084,0,0,1,.273.274,2.161,2.161,0,0,1,.2.391l.791,1.826H52.364l-.772-1.758a.831.831,0,0,0-.259-.361.915.915,0,0,0-.512-.108H49.639v2.227ZM49.639,164h1.543a1.354,1.354,0,0,0,.908-.283,1.131,1.131,0,0,0,.332-.908,1.028,1.028,0,0,0-1.142-1.182H49.639Z" transform="translate(-33.703 -160.7)" fill="#fff"/>
        <path id="Pfad_23548" data-name="Pfad 23548" d="M78.234,167.087V160.8h1.093l1.992,4.072L83.3,160.8H84.4v6.289H83.341v-4.56L81.642,166H81l-1.709-3.476v4.56Z" transform="translate(-51.253 -160.7)" fill="#fff"/>
        <path id="Pfad_23549" data-name="Pfad 23549" d="M100.67,167.087l2.4-6.289h1.191l2.383,6.289h-1.094l-.625-1.621H102.4l-.625,1.621Zm1.894-2.441h2.187l-1.093-2.881Z" transform="translate(-64.53 -160.7)" fill="#fff"/>
        <path id="Pfad_23550" data-name="Pfad 23550" d="M124,167.043a3.066,3.066,0,0,1-2.349-.85,3.221,3.221,0,0,1-.8-2.295,4.312,4.312,0,0,1,.337-1.782,2.486,2.486,0,0,1,1.03-1.152,3.466,3.466,0,0,1,1.768-.405,5.456,5.456,0,0,1,1.846.3v.928a4.42,4.42,0,0,0-.835-.239,5.092,5.092,0,0,0-.932-.083,1.97,1.97,0,0,0-1.655.625,2.906,2.906,0,0,0-.483,1.807,2.386,2.386,0,0,0,.527,1.675,2.117,2.117,0,0,0,1.631.572,5.7,5.7,0,0,0,.9-.074,4.146,4.146,0,0,0,.854-.23v.938a5.292,5.292,0,0,1-.844.2A6.734,6.734,0,0,1,124,167.043Z" transform="translate(-76.476 -160.559)" fill="#fff"/>
        <path id="Pfad_23551" data-name="Pfad 23551" d="M140.4,167.087V160.8h1.064v2.734h3.027V160.8h1.065v6.289h-1.065v-2.734h-3.027v2.734Z" transform="translate(-88.039 -160.7)" fill="#fff"/>
        <path id="Pfad_23552" data-name="Pfad 23552" d="M160.827,167.087V160.8h4.385v.83h-3.32v1.9h2.959v.821h-2.959v1.914h3.32v.82Z" transform="translate(-100.127 -160.7)" fill="#fff"/>
        <path id="Pfad_23553" data-name="Pfad 23553" d="M178.766,167.087V160.8h.937l3.281,4.629V160.8h1.055v6.289H183.1l-3.271-4.619v4.619Z" transform="translate(-110.742 -160.7)" fill="#fff"/>
        <path id="Pfad_23554" data-name="Pfad 23554" d="M209.789,167.087V160.8h1.065v2.734h3.027V160.8h1.064v6.289h-1.064v-2.734h-3.027v2.734Z" transform="translate(-129.1 -160.7)" fill="#fff"/>
        <path id="Pfad_23555" data-name="Pfad 23555" d="M232.717,167.043a2.934,2.934,0,0,1-2.236-.786,3.447,3.447,0,0,1-.742-2.436,3.5,3.5,0,0,1,.742-2.49,3.633,3.633,0,0,1,4.477,0,3.519,3.519,0,0,1,.737,2.49,3.462,3.462,0,0,1-.737,2.436A2.932,2.932,0,0,1,232.717,167.043Zm0-.9a1.807,1.807,0,0,0,1.45-.543,2.733,2.733,0,0,0,.464-1.782,2.778,2.778,0,0,0-.464-1.831,2.258,2.258,0,0,0-2.89,0,2.776,2.776,0,0,0-.464,1.831,2.73,2.73,0,0,0,.464,1.782A1.8,1.8,0,0,0,232.717,166.145Z" transform="translate(-140.905 -160.559)" fill="#fff"/>
        <path id="Pfad_23556" data-name="Pfad 23556" d="M251.649,167.087V160.8h1.064v5.469h3.223v.82Z" transform="translate(-153.87 -160.7)" fill="#fff"/>
        <path id="Pfad_23557" data-name="Pfad 23557" d="M268.511,167.087v-.566l3.379-4.853h-3.213V160.8h4.58v.654l-3.349,4.815h3.4v.82Z" transform="translate(-163.848 -160.7)" fill="#fff"/>
        <path id="Pfad_23558" data-name="Pfad 23558" d="M297.334,167.087v-.566l3.379-4.853H297.5V160.8h4.579v.654l-3.349,4.815h3.4v.82Z" transform="translate(-180.904 -160.7)" fill="#fff"/>
        <path id="Pfad_23559" data-name="Pfad 23559" d="M318.965,167.185a2.969,2.969,0,0,1-2.016-.625,2.265,2.265,0,0,1-.718-1.806V160.8h1.064v3.916a1.509,1.509,0,0,0,.435,1.181,2.131,2.131,0,0,0,2.461,0,1.509,1.509,0,0,0,.434-1.181V160.8h1.055v3.955a2.273,2.273,0,0,1-.713,1.806A2.935,2.935,0,0,1,318.965,167.185Z" transform="translate(-192.086 -160.7)" fill="#fff"/>
        <path id="Pfad_23560" data-name="Pfad 23560" d="M337.255,167.087V160.8h1.094l1.992,4.072,1.982-4.072h1.094v6.289h-1.055v-4.56l-1.7,3.476h-.644l-1.709-3.476v4.56Z" transform="translate(-204.527 -160.7)" fill="#fff"/>
        <path id="Pfad_23561" data-name="Pfad 23561" d="M371.511,167.087v-5.459H369.5v-.83h5.078v.83h-2v5.459Z" transform="translate(-223.607 -160.7)" fill="#fff"/>
        <path id="Pfad_23562" data-name="Pfad 23562" d="M388.8,167.087V160.8h1.065v2.734h3.027V160.8h1.064v6.289h-1.064v-2.734h-3.027v2.734Z" transform="translate(-235.029 -160.7)" fill="#fff"/>
        <path id="Pfad_23563" data-name="Pfad 23563" d="M409.229,167.087V160.8h4.385v.83h-3.32v1.9h2.959v.821h-2.959v1.914h3.32v.82Z" transform="translate(-247.117 -160.7)" fill="#fff"/>
        <path id="Pfad_23564" data-name="Pfad 23564" d="M427.168,167.087V160.8h1.094l1.992,4.072,1.982-4.072h1.094v6.289h-1.055v-4.56l-1.7,3.476h-.644l-1.709-3.476v4.56Z" transform="translate(-257.733 -160.7)" fill="#fff"/>
        <path id="Pfad_23565" data-name="Pfad 23565" d="M449.6,167.087l2.4-6.289H453.2l2.383,6.289h-1.094l-.625-1.621h-2.53l-.625,1.621Zm1.894-2.441h2.188l-1.094-2.881Z" transform="translate(-271.01 -160.7)" fill="#fff"/>
      </g>
    </g>
  </g>
</svg>
