<svg xmlns="http://www.w3.org/2000/svg" width="587.495" height="179.317" viewBox="0 0 587.495 179.317">
  <g id="Logo_voll_mittel_4c_positiv" data-name="Logo voll mittel 4c positiv" transform="translate(293.748 89.659)">
    <g id="Logo_voll_mittel_4c_positiv-2" data-name="Logo voll mittel 4c positiv" transform="translate(-293.748 -89.659)">
      <g id="Gruppe_3421" data-name="Gruppe 3421">
        <path id="Pfad_22635" data-name="Pfad 22635" d="M3.053,165.438H87.878c0-1.937-1.936-11.04,2.518-23.047,0,0-14.719,1.936-13.944-8.327,0,0-9.877,19.753-22.077,9.877,0,0-8.522-3.874-3.68-12.394,0,0-9.78,7.65-16.461.968,0,0-11.62-8.522,7.94-14.137l-.194-3.68s-12.588-1.549-4.841-15.687c0,0,10.651-9.683,16.267-9.683V87.391s-6.2-3.874,0-5.81c0,0-15.492-12.007,8.328-16.655,0,0-5.125-18.011,8.328-18.011.968,0,18.785-12.007,23.627-14.138,0,0,16.655-6.778,12.782,8.715,0,0,11.426-11.427,20.722-6.585,0,0,5.616,1.549,1.355,9.877,0,0,2.13-1.936,11.232,0,0,0-19.56-12.782,4.842-18.011,0,0,26.919-25.335,45.123-26.338,0,0,6.584-1.743,7.553,1.743,0,0,12.976-2.905,8.715,11.619,0,0,14.912-12.394,24.789-2.518,0,0,3.679,3.68-1.162,12.4,0,0,5.229-4.067,7.747,2.13,0,0,17.817-14.332,15.881,5.035,0,0-2.129,9.489-9.1,14.525,0,0,9.2-4.357,13.557,0,0,0,30.986-14.525,41.444-14.525,0,0,18.591-4.26,9.3,7.165,0,0-7.939,4.842-10.844,10.845s0,.968,0,.968,26.726-10.651,21.69,8.328c0,0,22.659-5.229,10.845,13.169,0,0,22.465-1.549,6.584,17.236,0,0,1.55,10.458-9.1,16.462,0,0,7.359,17.623-17.431,20.141,0,0-4.259,24.6-35.246,13.751,0,0,1.935,14.332-7.166,26.532,0,0,43.768,1.161,56.744,1.161,0,0,27.694-.58,44.543,3.486,0,0-31.066,1.656-54.807,3.1-1.367.083-39.12,0-51.321,0,0,0-14.823,2.981-25.191,4.442,0,0-14.4.347-53.312,1.692,0,0-7.052-.564-126.393-4.778,0,0-46.964,3.582-57.325-6.779C.729,167.76-1.983,165.438,3.053,165.438Zm176.231.676H259.55s-10.4-18.58-.956-24.42c0,0-5.945-2.336-4.246-7.75H250.42s-10.193,11.36-24.526,8.6c0,0-11.468-3.717-1.168-12.953l-7.644-.955s2.654,15.5-16.563,14.015c0,0-10.086,8.813-17.731,6.583C182.787,149.234,187.565,160.062,179.284,166.114Zm-76.339,0h52.13s.637-11.785,4.672-16.88c0,0-15.661,8.759-23.783.637,0,0-2.5-3.451,1.487-7.433,0,0,1.593-5.2-2.6-2.6a21.759,21.759,0,0,1-15.236,5.892s-9.024.637-9.874-7.432c0,0-6.582,2.654-9.662,2.654C100.078,140.952,108.041,148.171,102.945,166.114Z" transform="translate(0 0)" fill="#8dc21c"/>
      </g>
      <g id="Gruppe_3422" data-name="Gruppe 3422" transform="translate(387.6 42.811)">
        <path id="Pfad_22636" data-name="Pfad 22636" d="M448.609,97.45a1.983,1.983,0,0,1-1.982-1.982v-21.6H418.054a1.831,1.831,0,0,1-1.333-.58,1.906,1.906,0,0,1-.581-1.4V48.166a1.909,1.909,0,0,1,.581-1.4,1.834,1.834,0,0,1,1.333-.58,1.981,1.981,0,0,1,1.982,1.982V69.9h28.573a1.831,1.831,0,0,1,1.332.581,1.906,1.906,0,0,1,.582,1.4V95.468a1.9,1.9,0,0,1-.582,1.4A1.828,1.828,0,0,1,448.609,97.45Zm-30.555,0a1.828,1.828,0,0,1-1.333-.581,1.9,1.9,0,0,1-.581-1.4V79.746a1.989,1.989,0,0,1,1.914-1.913,1.916,1.916,0,0,1,1.4.581,1.835,1.835,0,0,1,.58,1.332V95.468a1.983,1.983,0,0,1-1.982,1.982ZM448.609,65.8a1.911,1.911,0,0,1-1.4-.581,1.831,1.831,0,0,1-.58-1.333V48.166a1.981,1.981,0,0,1,1.982-1.982,1.834,1.834,0,0,1,1.332.58,1.91,1.91,0,0,1,.582,1.4V63.888a1.991,1.991,0,0,1-1.914,1.914Z" transform="translate(-416.14 -45.979)" fill="#8dc21c"/>
        <path id="Pfad_22637" data-name="Pfad 22637" d="M478.381,97.641q-9.843,0-14.628-6.016-5.2-6.219-5.2-19.822a60.051,60.051,0,0,1,.307-6.357,48.476,48.476,0,0,1,.854-5.332,18.988,18.988,0,0,1,3.623-8.134,15.821,15.821,0,0,1,6.426-4.649,23.4,23.4,0,0,1,8.613-1.366,27.893,27.893,0,0,1,4.717.376,14.2,14.2,0,0,1,3.964,1.264,15.259,15.259,0,0,1,6.425,4.922q4.58,6.29,4.58,19.277a49.6,49.6,0,0,1-1.161,11.211,25.5,25.5,0,0,1-1.572,4.442,16.931,16.931,0,0,1-2.324,3.691Q488.087,97.643,478.381,97.641Zm0-47.713q-8.546,0-12.03,4.512-3.9,5.126-3.9,17.363a43.835,43.835,0,0,0,1.06,10.458,18.6,18.6,0,0,0,3.11,6.9q3.621,4.513,11.757,4.512,7.86,0,11.688-5.059a20.108,20.108,0,0,0,3.042-6.938,40.743,40.743,0,0,0,1.06-9.877q0-11.551-3.759-16.816Q486.651,49.929,478.381,49.928Z" transform="translate(-419.049 -45.964)" fill="#8dc21c"/>
        <path id="Pfad_22638" data-name="Pfad 22638" d="M526.491,69.7h-19.31a1.944,1.944,0,0,1-1.343-.547,1.76,1.76,0,0,1-.605-1.366V48.1a1.765,1.765,0,0,1,.605-1.367,1.953,1.953,0,0,1,1.343-.547h28.539a2.009,2.009,0,0,1,1.366.547,1.826,1.826,0,0,1,0,2.735,2.009,2.009,0,0,1-1.366.547h-26.59V65.733h17.362a2.1,2.1,0,0,1,2.051,2.051,1.748,1.748,0,0,1-.616,1.366A2.085,2.085,0,0,1,526.491,69.7ZM507.181,97.45a1.84,1.84,0,0,1-1.343-.615,1.905,1.905,0,0,1-.605-1.367v-20.1a1.8,1.8,0,0,1,.605-1.333,1.892,1.892,0,0,1,1.343-.581,1.97,1.97,0,0,1,1.948,1.914v20.1a1.967,1.967,0,0,1-.572,1.367A1.81,1.81,0,0,1,507.181,97.45Z" transform="translate(-422.25 -45.979)" fill="#8dc21c"/>
        <path id="Pfad_22639" data-name="Pfad 22639" d="M544.647,62.247a1.8,1.8,0,0,1-1.367-.581,1.966,1.966,0,0,1-.547-1.4V48.131a1.9,1.9,0,0,1,.547-1.391,1.839,1.839,0,0,1,1.367-.556H573.22a1.838,1.838,0,0,1,1.366.556,1.908,1.908,0,0,1,.547,1.391,2.027,2.027,0,0,1-.547,1.427,1.784,1.784,0,0,1-1.366.591H546.629V60.265a1.983,1.983,0,0,1-1.982,1.982ZM573.22,97.382H544.647a1.87,1.87,0,0,1-1.914-1.919V68.335a1.976,1.976,0,0,1,.547-1.4,1.8,1.8,0,0,1,1.367-.582h21.669a1.9,1.9,0,0,1,1.4.591,1.963,1.963,0,0,1,.581,1.427,2,2,0,0,1-1.981,1.947H546.629v23.1H573.22a1.786,1.786,0,0,1,1.366.592,2.027,2.027,0,0,1,.547,1.425,1.9,1.9,0,0,1-.547,1.391A1.832,1.832,0,0,1,573.22,97.382Z" transform="translate(-424.822 -45.979)" fill="#8dc21c"/>
        <path id="Pfad_22640" data-name="Pfad 22640" d="M621.3,95.537a2.046,2.046,0,0,1-2.016,1.913,1.567,1.567,0,0,1-1.367-.683L603.834,81.661H587.36V95.537a1.8,1.8,0,0,1-.6,1.332,1.9,1.9,0,0,1-1.344.581,1.967,1.967,0,0,1-1.948-1.913V48.166a1.981,1.981,0,0,1,1.979-1.982H602.09c.137,0,.636.034,1.5.1a20.291,20.291,0,0,1,3.206.581,21.332,21.332,0,0,1,4.094,1.538,16.177,16.177,0,0,1,4.163,2.973q4.707,4.651,4.707,12.51a21.95,21.95,0,0,1-1.612,8.818,15.247,15.247,0,0,1-3.992,5.4,1.9,1.9,0,0,1-1.47.443,2.233,2.233,0,0,1-1.334-.649,1.645,1.645,0,0,1-.409-1.435,2.438,2.438,0,0,1,.683-1.367q4.237-3.553,4.238-11.21,0-6.288-3.495-9.775a10.992,10.992,0,0,0-3.392-2.358,21.281,21.281,0,0,0-3.186-1.128q-1.642-.272-2.672-.41a9.619,9.619,0,0,0-1.026-.069H587.36V77.7h17.431a1.9,1.9,0,0,1,1.367.615L620.786,94.17A1.749,1.749,0,0,1,621.3,95.537Z" transform="translate(-427.616 -45.979)" fill="#8dc21c"/>
      </g>
      <g id="Gruppe_3423" data-name="Gruppe 3423" transform="translate(388.085 109.073)">
        <path id="Pfad_22641" data-name="Pfad 22641" d="M438.856,152.3a1.358,1.358,0,0,1-1.355-1.356V136.179H417.97a1.25,1.25,0,0,1-.911-.4,1.306,1.306,0,0,1-.4-.957V118.61a1.308,1.308,0,0,1,.4-.958,1.252,1.252,0,0,1,.911-.4,1.352,1.352,0,0,1,1.354,1.354v14.859h19.532a1.256,1.256,0,0,1,.911.4,1.307,1.307,0,0,1,.4.958v16.119a1.3,1.3,0,0,1-.4.958A1.257,1.257,0,0,1,438.856,152.3Zm-20.886,0a1.251,1.251,0,0,1-.911-.4,1.305,1.305,0,0,1-.4-.958V140.2a1.359,1.359,0,0,1,1.309-1.308,1.313,1.313,0,0,1,.958.4,1.258,1.258,0,0,1,.4.911v10.747a1.355,1.355,0,0,1-1.354,1.356Zm20.886-21.634a1.3,1.3,0,0,1-.958-.4,1.249,1.249,0,0,1-.4-.911V118.61a1.355,1.355,0,0,1,1.355-1.354,1.258,1.258,0,0,1,.911.4,1.307,1.307,0,0,1,.4.958v10.747a1.36,1.36,0,0,1-1.308,1.309Z" transform="translate(-416.661 -117.115)" fill="#8dc21c" stroke="#8dc21c" stroke-miterlimit="10" stroke-width="1.062"/>
        <path id="Pfad_22642" data-name="Pfad 22642" d="M459.206,152.429q-6.729,0-10-4.112-3.552-4.251-3.552-13.55a40.892,40.892,0,0,1,.211-4.345,32.837,32.837,0,0,1,.585-3.645,12.958,12.958,0,0,1,2.476-5.561,10.813,10.813,0,0,1,4.393-3.177,15.963,15.963,0,0,1,5.887-.934,19.061,19.061,0,0,1,3.224.257,9.756,9.756,0,0,1,2.71.863,10.453,10.453,0,0,1,4.393,3.365q3.13,4.3,3.131,13.176a33.968,33.968,0,0,1-.794,7.664,17.55,17.55,0,0,1-1.076,3.036,11.522,11.522,0,0,1-1.589,2.523Q465.842,152.43,459.206,152.429Zm0-32.614q-5.841,0-8.224,3.084-2.663,3.505-2.664,11.868a29.906,29.906,0,0,0,.726,7.15,12.684,12.684,0,0,0,2.125,4.719q2.476,3.083,8.036,3.084,5.373,0,7.991-3.457a13.752,13.752,0,0,0,2.079-4.743,27.862,27.862,0,0,0,.725-6.752q0-7.9-2.571-11.495Q464.86,119.815,459.206,119.814Z" transform="translate(-418.65 -117.105)" fill="#8dc21c" stroke="#8dc21c" stroke-miterlimit="10" stroke-width="1.062"/>
        <path id="Pfad_22643" data-name="Pfad 22643" d="M478.916,148.234a1.347,1.347,0,0,1-.957-.374,1.23,1.23,0,0,1-.4-.935V118.61a1.355,1.355,0,0,1,1.355-1.354,1.231,1.231,0,0,1,.934.4,1.348,1.348,0,0,1,.374.958v28.315a1.278,1.278,0,0,1-1.309,1.309Zm17.756,4.066H478.916a1.293,1.293,0,0,1-.957-.4,1.338,1.338,0,0,1-.4-.975,1.258,1.258,0,0,1,.4-.95,1.331,1.331,0,0,1,.957-.382h17.756a1.359,1.359,0,0,1,.934.382,1.225,1.225,0,0,1,.421.95,1.3,1.3,0,0,1-.421.975A1.32,1.32,0,0,1,496.672,152.3Z" transform="translate(-420.838 -117.115)" fill="#8dc21c" stroke="#8dc21c" stroke-miterlimit="10" stroke-width="1.062"/>
        <path id="Pfad_22644" data-name="Pfad 22644" d="M519.251,119.866H504.346a1.428,1.428,0,0,1-.981-.373,1.247,1.247,0,0,1,0-1.868,1.428,1.428,0,0,1,.981-.373h14.906a1.345,1.345,0,0,1,.957.373,1.3,1.3,0,0,1,0,1.868A1.345,1.345,0,0,1,519.251,119.866Zm7.289,32.428H504.346a1.275,1.275,0,0,1-1.215-.7,1.224,1.224,0,0,1-.163-.7,1.1,1.1,0,0,1,.257-.655l22.194-32.427a1.257,1.257,0,0,1,.864-.607,1.168,1.168,0,0,1,.958.234,1.255,1.255,0,0,1,.607.863,1.3,1.3,0,0,1-.234,1l-20.746,30.279h19.672a1.249,1.249,0,0,1,.912.405,1.344,1.344,0,0,1,.4.975,1.264,1.264,0,0,1-.4.95A1.282,1.282,0,0,1,526.541,152.295Z" transform="translate(-422.579 -117.11)" fill="#8dc21c" stroke="#8dc21c" stroke-miterlimit="10" stroke-width="1.062"/>
        <path id="Pfad_22645" data-name="Pfad 22645" d="M555.341,133.889a9.871,9.871,0,0,1,1.636,1.238,8.567,8.567,0,0,1,1.519,1.893,11.19,11.19,0,0,1,1.121,2.64,12.655,12.655,0,0,1,.443,3.528,8.234,8.234,0,0,1-1.589,5.187,8.821,8.821,0,0,1-3.551,2.8,10.393,10.393,0,0,1-1.8.631q-.865.211-1.611.328a11.633,11.633,0,0,1-1.262.14c-.343.017-.56.024-.654.024H536.559a1.252,1.252,0,0,1-.911-.4,1.3,1.3,0,0,1-.4-.958V118.61a1.3,1.3,0,0,1,.4-.958,1.254,1.254,0,0,1,.911-.4h13.083c.031,0,.179.007.444.022a9.061,9.061,0,0,1,1.027.14q.631.117,1.425.328a10.763,10.763,0,0,1,1.636.584,8.187,8.187,0,0,1,3.318,2.71,7.522,7.522,0,0,1,1.1,2.406,11.063,11.063,0,0,1,.351,2.827,9.944,9.944,0,0,1-.351,2.757,8.54,8.54,0,0,1-.91,2.125,6.974,6.974,0,0,1-1.262,1.542,9.15,9.15,0,0,1-1.4,1.052A2.4,2.4,0,0,0,555.341,133.889ZM553.847,148.7a5.589,5.589,0,0,0,3.551-5.513q0-4.953-3.411-6.961a7.419,7.419,0,0,0-2.616-.912q-1.262-.163-1.542-.164h-.093a1.442,1.442,0,0,1-.935-.42,1.266,1.266,0,0,1-.374-.935,1.1,1.1,0,0,1,.35-.91,1.444,1.444,0,0,1,.912-.444h.14c.093,0,.257-.007.491-.023a7.182,7.182,0,0,0,.841-.116,10.515,10.515,0,0,0,1.1-.281,5.5,5.5,0,0,0,1.167-.514q2.852-1.494,2.851-5.233a5.712,5.712,0,0,0-3.178-5.514,9.733,9.733,0,0,0-1.261-.443,9.164,9.164,0,0,0-1.1-.233c-.327-.048-.693-.086-1.1-.117H537.913v12.475h6.355a1.355,1.355,0,0,1,1.355,1.354,1.335,1.335,0,0,1-.4.935,1.271,1.271,0,0,1-.958.42h-6.355v14.438h11.682c.03,0,.179-.007.444-.022s.6-.048,1-.094a10.033,10.033,0,0,0,2.8-.771Z" transform="translate(-424.794 -117.115)" fill="#8dc21c" stroke="#8dc21c" stroke-miterlimit="10" stroke-width="1.062"/>
        <path id="Pfad_22646" data-name="Pfad 22646" d="M593.5,150.43a1.189,1.189,0,0,1,0,1.027,1.463,1.463,0,0,1-.747.748,1.194,1.194,0,0,1-1,.023,1.369,1.369,0,0,1-.725-.725l-12.009-29.39-12.1,29.39a1.417,1.417,0,0,1-1.261.8,1.159,1.159,0,0,1-.514-.094,1.455,1.455,0,0,1-.748-.748,1.19,1.19,0,0,1,0-1.027L577.8,118.05a1.326,1.326,0,0,1,2.429,0Zm-9.765-7.57H574.2a1.355,1.355,0,1,1,0-2.709h9.533a1.355,1.355,0,0,1,0,2.709Z" transform="translate(-426.785 -117.115)" fill="#8dc21c" stroke="#8dc21c" stroke-miterlimit="10" stroke-width="1.062"/>
        <path id="Pfad_22647" data-name="Pfad 22647" d="M609.953,152.439a10.792,10.792,0,0,1-7.99-2.991,10.217,10.217,0,0,1-2.01-2.92,16.778,16.778,0,0,1-1.027-2.921,14.75,14.75,0,0,1-.4-2.289q-.07-.933-.07-1.027V118.61a1.314,1.314,0,0,1,.38-.981,1.361,1.361,0,0,1,1-.373,1.244,1.244,0,0,1,.9.373,1.314,1.314,0,0,1,.38.981v21.681c0,.031.008.186.024.467a8.285,8.285,0,0,0,.162,1.121q.141.7.374,1.566a10.318,10.318,0,0,0,.653,1.753q2.1,4.532,7.642,4.531,5.5,0,7.689-4.625a9,9,0,0,0,.63-1.775q.208-.887.325-1.566a13.545,13.545,0,0,0,.164-1.519V118.61a1.324,1.324,0,0,1,.374-.981,1.266,1.266,0,0,1,.934-.373,1.345,1.345,0,0,1,.958.373,1.285,1.285,0,0,1,.4.981v21.633c0,.032-.007.226-.023.585a11.985,11.985,0,0,1-.163,1.379q-.14.84-.421,1.892a13.709,13.709,0,0,1-.794,2.173,12.579,12.579,0,0,1-1.5,2.407,9.093,9.093,0,0,1-1.916,1.8A11.35,11.35,0,0,1,609.953,152.439Z" transform="translate(-429.129 -117.115)" fill="#8dc21c" stroke="#8dc21c" stroke-miterlimit="10" stroke-width="1.062"/>
      </g>
      <rect id="Rechteck_699" data-name="Rechteck 699" width="203.715" height="15.713" rx="2.045" transform="translate(383.78 161.485)" fill="#8dc21c"/>
      <g id="Gruppe_3424" data-name="Gruppe 3424" transform="translate(388.945 166.218)">
        <path id="Pfad_22648" data-name="Pfad 22648" d="M419.11,185.117l-1.526-6.55h1.089l1.107,4.912,1.242-4.119v-.794h.905l1.393,4.912,1.129-4.912h1.078l-1.515,6.55h-1.088l-1.312-4.587-1.393,4.587Z" transform="translate(-417.584 -178.466)" fill="#fff"/>
        <path id="Pfad_22649" data-name="Pfad 22649" d="M429.464,185.117v-6.55h1.108v6.55Z" transform="translate(-418.399 -178.465)" fill="#fff"/>
        <path id="Pfad_22650" data-name="Pfad 22650" d="M434.215,185.117v-6.55h3.01a2.048,2.048,0,0,1,1.6.564,2.217,2.217,0,0,1,.5,1.53,2,2,0,0,1-.346,1.181,1.813,1.813,0,0,1-1,.681,1.117,1.117,0,0,1,.285.285,2.27,2.27,0,0,1,.2.406l.824,1.9h-1.14l-.8-1.831a.865.865,0,0,0-.269-.375.963.963,0,0,0-.536-.112h-1.23v2.318Zm1.108-3.213h1.608a1.405,1.405,0,0,0,.945-.3,1.177,1.177,0,0,0,.346-.946,1.069,1.069,0,0,0-1.189-1.23h-1.709Z" transform="translate(-418.725 -178.465)" fill="#fff"/>
        <path id="Pfad_22651" data-name="Pfad 22651" d="M447.756,185.117v-6.55H448.9l2.075,4.242,2.065-4.242h1.139v6.55h-1.1v-4.749l-1.771,3.62h-.671l-1.781-3.62v4.749Z" transform="translate(-419.653 -178.465)" fill="#fff"/>
        <path id="Pfad_22652" data-name="Pfad 22652" d="M458,185.117l2.5-6.55h1.241l2.482,6.55h-1.139l-.65-1.688H459.8l-.65,1.688Zm1.973-2.542h2.278l-1.138-3Z" transform="translate(-420.356 -178.465)" fill="#fff"/>
        <path id="Pfad_22653" data-name="Pfad 22653" d="M470.492,185.212a3.193,3.193,0,0,1-2.447-.886,3.353,3.353,0,0,1-.828-2.39,4.472,4.472,0,0,1,.351-1.855,2.578,2.578,0,0,1,1.072-1.2,3.614,3.614,0,0,1,1.841-.422,5.9,5.9,0,0,1,1.043.086,5.743,5.743,0,0,1,.879.23v.966a4.6,4.6,0,0,0-.87-.25,5.356,5.356,0,0,0-.971-.087,2.051,2.051,0,0,0-1.724.652,3.017,3.017,0,0,0-.5,1.881,2.483,2.483,0,0,0,.549,1.745,2.2,2.2,0,0,0,1.7.6,5.98,5.98,0,0,0,.942-.076,4.348,4.348,0,0,0,.889-.238v.976a5.47,5.47,0,0,1-.88.2A7.028,7.028,0,0,1,470.492,185.212Z" transform="translate(-420.988 -178.458)" fill="#fff"/>
        <path id="Pfad_22654" data-name="Pfad 22654" d="M476.138,185.117v-6.55h1.108v2.848H480.4v-2.848h1.108v6.55H480.4v-2.847h-3.154v2.847Z" transform="translate(-421.6 -178.465)" fill="#fff"/>
        <path id="Pfad_22655" data-name="Pfad 22655" d="M485.464,185.117v-6.55h4.567v.864h-3.458v1.984h3.083v.854h-3.083v1.993h3.458v.854Z" transform="translate(-422.24 -178.465)" fill="#fff"/>
        <path id="Pfad_22656" data-name="Pfad 22656" d="M493.653,185.117v-6.55h.977l3.417,4.821v-4.821h1.1v6.55h-.977l-3.407-4.811v4.811Z" transform="translate(-422.801 -178.465)" fill="#fff"/>
        <path id="Pfad_22657" data-name="Pfad 22657" d="M507.817,185.117v-6.55h1.109v2.848h3.153v-2.848h1.109v6.55h-1.109v-2.847h-3.153v2.847Z" transform="translate(-423.772 -178.465)" fill="#fff"/>
        <path id="Pfad_22658" data-name="Pfad 22658" d="M520.028,185.212a3.054,3.054,0,0,1-2.328-.819,3.588,3.588,0,0,1-.773-2.538,3.648,3.648,0,0,1,.773-2.594,3.788,3.788,0,0,1,4.664,0,3.669,3.669,0,0,1,.767,2.594,3.609,3.609,0,0,1-.767,2.538A3.057,3.057,0,0,1,520.028,185.212Zm0-.936a1.884,1.884,0,0,0,1.511-.564,2.851,2.851,0,0,0,.482-1.856,2.9,2.9,0,0,0-.482-1.908,2.356,2.356,0,0,0-3.011,0,2.9,2.9,0,0,0-.482,1.908,2.85,2.85,0,0,0,.482,1.856A1.869,1.869,0,0,0,520.028,184.276Z" transform="translate(-424.397 -178.458)" fill="#fff"/>
        <path id="Pfad_22659" data-name="Pfad 22659" d="M526.928,185.117v-6.55h1.108v5.7h3.357v.854Z" transform="translate(-425.083 -178.465)" fill="#fff"/>
        <path id="Pfad_22660" data-name="Pfad 22660" d="M534.628,185.117v-.59l3.519-5.055H534.8v-.905h4.77v.681l-3.488,5.015h3.539v.854Z" transform="translate(-425.611 -178.465)" fill="#fff"/>
        <path id="Pfad_22661" data-name="Pfad 22661" d="M547.787,185.117v-.59l3.519-5.055h-3.347v-.905h4.771v.681l-3.489,5.015h3.539v.854Z" transform="translate(-426.514 -178.465)" fill="#fff"/>
        <path id="Pfad_22662" data-name="Pfad 22662" d="M559.262,185.219a3.093,3.093,0,0,1-2.1-.652,2.357,2.357,0,0,1-.747-1.881v-4.12h1.108v4.079a1.567,1.567,0,0,0,.454,1.23,2.221,2.221,0,0,0,2.563,0,1.57,1.57,0,0,0,.453-1.23v-4.079h1.1v4.12a2.366,2.366,0,0,1-.742,1.881A3.055,3.055,0,0,1,559.262,185.219Z" transform="translate(-427.105 -178.465)" fill="#fff"/>
        <path id="Pfad_22663" data-name="Pfad 22663" d="M566.013,185.117v-6.55h1.139l2.075,4.242,2.064-4.242h1.14v6.55h-1.1v-4.749l-1.77,3.62h-.672l-1.78-3.62v4.749Z" transform="translate(-427.764 -178.465)" fill="#fff"/>
        <path id="Pfad_22664" data-name="Pfad 22664" d="M582.829,185.117v-5.685h-2.1v-.864h5.29v.864h-2.085v5.685Z" transform="translate(-428.773 -178.465)" fill="#fff"/>
        <path id="Pfad_22665" data-name="Pfad 22665" d="M589.546,185.117v-6.55h1.108v2.848h3.154v-2.848h1.108v6.55h-1.108v-2.847h-3.154v2.847Z" transform="translate(-429.378 -178.465)" fill="#fff"/>
        <path id="Pfad_22666" data-name="Pfad 22666" d="M598.871,185.117v-6.55h4.567v.864h-3.458v1.984h3.083v.854h-3.083v1.993h3.458v.854Z" transform="translate(-430.017 -178.465)" fill="#fff"/>
        <path id="Pfad_22667" data-name="Pfad 22667" d="M607.061,185.117v-6.55h1.14l2.075,4.242,2.064-4.242h1.14v6.55h-1.1v-4.749l-1.77,3.62h-.672l-1.78-3.62v4.749Z" transform="translate(-430.579 -178.465)" fill="#fff"/>
        <path id="Pfad_22668" data-name="Pfad 22668" d="M617.3,185.117l2.5-6.55h1.241l2.482,6.55h-1.14l-.65-1.688H619.1l-.65,1.688Zm1.973-2.542h2.278l-1.139-3Z" transform="translate(-431.282 -178.465)" fill="#fff"/>
      </g>
    </g>
  </g>
</svg>
